# xmcd CD database file
#
# Track frame offsets:
#	150
#	16105
#	32544
#	48232
#	61239
#	79233
#	95832
#	111708
#	124933
#	142228
#	163253
#	175649
#
# Disc length: 2559 seconds
#
# Revision: 0
# Processed by: cddbd v1.5.2PL0 Copyright (c) Steve Scherf et al.
# Submitted via: CDex 1.51
#
DISCID=a609fd0c
DTITLE=Zaz - Zaz
DYEAR=2010
DGENRE=Jazz
TTITLE0=Les passants
TTITLE1=Je veux
TTITLE2=Le long de la route
TTITLE3=La fee
TTITLE4=Trop sensible
TTITLE5=Prends garde a ta langue
TTITLE6=Ni oui Ni non
TTITLE7=Port Coton
TTITLE8=J'aime a nouveau
TTITLE9=Dans ma rue
TTITLE10=Eblouie par la nuit
TTITLE11=Mi va (Je veux versione italiana)
EXTD=YEAR: 2010
EXTT0=
EXTT1=
EXTT2=
EXTT3=
EXTT4=
EXTT5=
EXTT6=
EXTT7=
EXTT8=
EXTT9=
EXTT10=
EXTT11=
PLAYORDER=
